<svg width="106" height="38" viewBox="0 0 106 38" fill="none" xmlns="http://www.w3.org/2000/svg">
  <g clip-path="url(#clip0_47_8)">
    <path d="M2.2248 29.0549C2.89223 29.9894 3.73423 30.8776 4.75019 31.718C5.76638 32.5584 6.79324 33.2831 7.83195 33.8918C8.87051 34.5008 10.0572 35.102 11.3922 35.6967L11.3698 35.6748L11.4589 35.6967C10.4649 33.8413 9.96814 32.2183 9.96814 30.8268C9.96814 30.0874 10.15 29.388 10.5137 28.7289C10.8769 28.0692 11.3514 27.4781 11.9374 26.9569C12.5236 26.4352 13.1725 25.9135 13.8843 25.3917C14.5961 24.8696 15.308 24.308 16.0206 23.7068C16.7325 23.1054 17.3816 22.4674 17.9675 21.7935C18.5535 21.1194 19.0279 20.3042 19.3917 19.3476C19.7549 18.391 19.9368 17.3473 19.9368 16.217C19.9368 14.7965 19.7326 13.4632 19.325 12.2166C18.917 10.9702 18.3792 9.8794 17.7119 8.94467C17.0447 8.00995 16.203 7.12206 15.1862 6.28176C14.1701 5.44109 13.1433 4.71638 12.1048 4.1078C11.0662 3.49907 9.87961 2.89758 8.54474 2.30331L8.56688 2.32524L8.50016 2.30331C9.47902 4.1873 9.96837 5.81079 9.96837 7.17301C9.96837 7.91218 9.78671 8.6116 9.42322 9.27089C9.05966 9.93034 8.58511 10.5209 7.99928 11.0428C7.41321 11.5645 6.76433 12.0863 6.05232 12.6082C5.34007 13.1299 4.62799 13.6916 3.91605 14.293C3.20404 14.8945 2.55516 15.5323 1.96909 16.206C1.38326 16.8801 0.908716 17.6953 0.545152 18.6519C0.181899 19.6086 0 20.6523 0 21.7825C0 23.203 0.203487 24.5364 0.611474 25.7828C1.01954 27.0293 1.55737 28.1204 2.2248 29.0549Z" fill="#FFF000" />
    <path d="M35.7723 24.9293C35.4503 24.9293 35.1211 24.9656 34.7845 25.0382V28.088H35.443C37.1259 28.088 37.9674 27.5434 37.9674 26.4542C37.9674 25.4376 37.2357 24.9293 35.7723 24.9293ZM42.3576 33.2074C42.3576 34.8485 41.8161 36.0612 40.7332 36.8454C39.6649 37.6151 37.9381 38 35.5528 38C33.7674 38 32.0845 37.8911 30.5041 37.6732V21.9883C32.0114 21.7705 33.6211 21.6616 35.3333 21.6616C39.7235 21.6616 41.9186 23.0413 41.9186 25.8006C41.9186 26.7301 41.6186 27.5216 41.0186 28.1752C40.4186 28.8142 39.621 29.2136 38.6259 29.3733V29.4169C39.7527 29.5621 40.6527 29.9905 41.3259 30.7022C42.0137 31.4138 42.3576 32.2489 42.3576 33.2074ZM38.2967 32.7717C38.2967 31.6825 37.4918 31.1379 35.8821 31.1379H34.7845V34.6234C35.1211 34.696 35.4503 34.7323 35.7723 34.7323C36.6503 34.7323 37.2869 34.5726 37.682 34.2531C38.0918 33.9336 38.2967 33.4398 38.2967 32.7717Z" fill="black" />
    <path d="M51.459 36.2572C51.0493 36.7946 50.5371 37.223 49.9224 37.5425C49.3225 37.8475 48.7078 38 48.0786 38C46.703 38 45.7152 37.6442 45.1152 36.9326C44.5298 36.2209 44.2371 34.9792 44.2371 33.2074V26.4542H48.3639V32.7717C48.3639 33.614 48.4444 34.1732 48.6054 34.4491C48.7664 34.7105 49.0664 34.8412 49.5054 34.8412C49.959 34.8412 50.3615 34.5944 50.7127 34.1006C51.0785 33.6068 51.2615 33.0186 51.2615 32.336V26.4542H55.4321V37.7822H51.5907L51.5029 36.2572H51.459Z" fill="black" />
    <path d="M67.4143 26.2363V29.504C65.7753 29.504 64.5387 29.809 63.7046 30.419C62.8704 31.0289 62.4534 31.8858 62.4534 32.9896V37.7822H58.1949V26.4542H62.1241L62.1461 28.6326H62.19C63.4485 27.0351 65.1899 26.2363 67.4143 26.2363Z" fill="black" />
    <path d="M73.7223 27.9791C74.132 27.4417 74.6369 27.0206 75.2369 26.7156C75.8515 26.3961 76.4735 26.2363 77.1027 26.2363C78.5515 26.2363 79.5905 26.643 80.2198 27.4563C80.849 28.255 81.1637 29.6638 81.1637 31.6825V37.7822H77.0369V32.1182C77.0369 31.0289 76.9344 30.3028 76.7296 29.9397C76.5393 29.5766 76.1881 29.3951 75.6759 29.3951C75.2223 29.3951 74.8125 29.642 74.4467 30.1358C74.0955 30.6296 73.9198 31.2177 73.9198 31.9003V37.7822H69.7492V26.4542H73.5906L73.6784 27.9791H73.7223Z" fill="black" />
    <path d="M87.1261 31.0289H90.8358C90.8358 29.6492 90.2139 28.9594 88.97 28.9594C87.8432 28.9594 87.2285 29.6492 87.1261 31.0289ZM87.17 33.4252C87.4188 34.5871 88.2529 35.168 89.6724 35.168C90.77 35.168 91.8163 34.9139 92.8114 34.4056L93.6894 37.1286C92.3431 37.7095 90.8797 38 89.2993 38C87.4115 38 85.8969 37.4699 84.7554 36.4097C83.6139 35.3496 83.0432 33.919 83.0432 32.1182C83.0432 30.3028 83.5627 28.8723 84.6017 27.8266C85.6554 26.7664 87.0749 26.2363 88.8602 26.2363C90.6895 26.2363 92.1163 26.7519 93.1407 27.783C94.1651 28.7996 94.6772 30.2447 94.6772 32.1182C94.6772 32.5103 94.6407 32.946 94.5675 33.4252H87.17Z" fill="black" />
    <path d="M106 26.2363V29.504C104.361 29.504 103.124 29.809 102.29 30.419C101.456 31.0289 101.039 31.8858 101.039 32.9896V37.7822H96.7806V26.4542H100.71L100.732 28.6326H100.776C102.034 27.0351 103.776 26.2363 106 26.2363Z" fill="black" />
    <path d="M41.6991 4.68369C40.221 3.95754 38.721 3.59446 37.1991 3.59446C36.5113 3.59446 35.9918 3.71791 35.6406 3.9648C35.2894 4.19717 35.1138 4.50941 35.1138 4.90154C35.1138 5.5115 35.5894 5.9472 36.5406 6.20861C38.8381 6.81858 40.4552 7.55199 41.3917 8.40886C42.3283 9.25119 42.7966 10.3332 42.7966 11.6548C42.7966 13.2523 42.2405 14.4722 41.1283 15.3146C40.0162 16.1424 38.3406 16.5563 36.1016 16.5563C35.165 16.5563 34.1552 16.4038 33.0723 16.0988C32.004 15.7793 31.148 15.3872 30.5041 14.9225L31.4919 11.5458C32.2382 12.0541 33.0431 12.4535 33.9065 12.744C34.7845 13.0345 35.5894 13.1797 36.3211 13.1797C37.6381 13.1797 38.2967 12.7077 38.2967 11.7637C38.2967 11.1537 37.7113 10.6817 36.5406 10.3477C34.404 9.73772 32.8821 9.0043 31.9748 8.14744C31.0675 7.29058 30.6138 6.20861 30.6138 4.90154C30.6138 3.46375 31.1626 2.32369 32.2601 1.48135C33.3723 0.639016 34.9455 0.217846 36.9796 0.217846C39.1454 0.217846 40.9747 0.580923 42.4673 1.30708L41.6991 4.68369Z" fill="black" />
    <path d="M46.0508 6.3611C47.1045 5.31544 48.5898 4.79261 50.5069 4.79261C52.4239 4.79261 53.9093 5.31544 54.9629 6.3611C56.0166 7.40676 56.5434 8.84455 56.5434 10.6745C56.5434 12.5044 56.0166 13.9421 54.9629 14.9878C53.9093 16.0335 52.4239 16.5563 50.5069 16.5563C48.5898 16.5563 47.1045 16.0335 46.0508 14.9878C44.9972 13.9421 44.4704 12.5044 44.4704 10.6745C44.4704 8.84455 44.9972 7.40676 46.0508 6.3611ZM49.0362 12.9183C49.3581 13.3685 49.8484 13.5936 50.5069 13.5936C51.1654 13.5936 51.6557 13.3685 51.9776 12.9183C52.2996 12.4681 52.4605 11.7201 52.4605 10.6745C52.4605 9.62879 52.2996 8.88086 51.9776 8.43064C51.6557 7.98043 51.1654 7.75532 50.5069 7.75532C49.8484 7.75532 49.3581 7.98043 49.0362 8.43064C48.7142 8.88086 48.5533 9.62879 48.5533 10.6745C48.5533 11.7201 48.7142 12.4681 49.0362 12.9183Z" fill="black" />
    <path d="M65.6628 14.8135C65.2531 15.3509 64.7409 15.7793 64.1263 16.0988C63.5263 16.4038 62.9117 16.5563 62.2824 16.5563C60.9068 16.5563 59.919 16.2005 59.319 15.4889C58.7337 14.7772 58.441 13.5355 58.441 11.7637V5.01046H62.5678V11.328C62.5678 12.1703 62.6482 12.7295 62.8092 13.0054C62.9702 13.2668 63.2702 13.3975 63.7092 13.3975C64.1629 13.3975 64.5653 13.1506 64.9165 12.6569C65.2824 12.1631 65.4653 11.5749 65.4653 10.8923V5.01046H69.636V16.3384H65.7946L65.7067 14.8135H65.6628Z" fill="black" />
    <path d="M76.3718 6.53538C76.7816 5.99803 77.2865 5.57686 77.8865 5.27187C78.5011 4.95237 79.123 4.79261 79.7523 4.79261C81.2011 4.79261 82.2401 5.19926 82.8693 6.01255C83.4986 6.81132 83.8132 8.22006 83.8132 10.2388V16.3384H79.6864V10.6745C79.6864 9.58522 79.584 8.85907 79.3791 8.49599C79.1889 8.13292 78.8377 7.95138 78.3255 7.95138C77.8718 7.95138 77.4621 8.19827 77.0962 8.69206C76.745 9.18584 76.5694 9.77402 76.5694 10.4566V16.3384H72.3987V5.01046H76.2401L76.3279 6.53538H76.3718Z" fill="black" />
    <path d="M85.8025 10.6745C85.8025 8.80098 86.205 7.35593 87.0098 6.33932C87.8293 5.30818 88.9269 4.79261 90.3025 4.79261C91.5464 4.79261 92.5927 5.30092 93.4415 6.31753H93.4854V0H97.6561V16.3384H93.8146L93.7268 14.8135H93.6829C92.761 15.9754 91.6342 16.5563 90.3025 16.5563C88.9854 16.5563 87.9025 16.0335 87.0537 14.9878C86.2196 13.9421 85.8025 12.5044 85.8025 10.6745ZM89.7537 10.6745C89.7537 11.5458 89.9293 12.2212 90.2805 12.7004C90.6317 13.1652 91.0781 13.3975 91.6195 13.3975C92.1903 13.3975 92.6439 13.1724 92.9805 12.7222C93.3171 12.272 93.4854 11.6257 93.4854 10.7834V10.5655C93.4854 9.73772 93.3171 9.0987 92.9805 8.64849C92.6439 8.18375 92.1903 7.95138 91.6195 7.95138C91.0342 7.95138 90.5732 8.18375 90.2366 8.64849C89.9147 9.0987 89.7537 9.77402 89.7537 10.6745Z" fill="black" />
  </g>
  <defs>
    <clipPath id="clip0_47_8">
      <rect width="106" height="38" fill="white" />
    </clipPath>
  </defs>
</svg>